<svg width="113" height="114" viewBox="0 0 113 114" fill="none" xmlns="http://www.w3.org/2000/svg">
<ellipse cx="56.5" cy="57" rx="56.5" ry="57" fill="#EA6160"/>
<path d="M70.7583 48.8366V48.1836C70.7566 46.7685 70.3356 45.3854 69.5482 44.2079C68.7607 43.0305 67.6419 42.111 66.3321 41.565C65.0223 41.019 63.5799 40.8707 62.1858 41.1388C60.7918 41.4068 59.5082 42.0793 58.4962 43.0718C58.4364 43.1319 58.389 43.2033 58.357 43.2818C58.3249 43.3602 58.3088 43.4442 58.3095 43.5289V58.0136C58.3098 58.1314 58.3421 58.2468 58.4028 58.3478C58.4636 58.4488 58.5506 58.5315 58.6547 58.5872C58.7587 58.6429 58.876 58.6696 58.994 58.6643C59.112 58.659 59.2264 58.6221 59.3251 58.5573C60.5711 57.761 62.0185 57.334 63.4987 57.3263C63.8413 57.3199 64.1734 57.4447 64.4266 57.6749C64.6797 57.9051 64.8348 58.2232 64.8599 58.5638C64.8692 58.741 64.8423 58.9183 64.7806 59.0847C64.7189 59.2512 64.6239 59.4034 64.5013 59.532C64.3786 59.6607 64.231 59.7631 64.0674 59.8329C63.9037 59.9028 63.7275 59.9387 63.5495 59.9385C62.1593 59.9385 60.8261 60.4889 59.8431 61.4687C58.8601 62.4485 58.3079 63.7773 58.3079 65.1629V70.6943C58.3077 70.792 58.3296 70.8884 58.3718 70.9766C58.4141 71.0647 58.4756 71.1423 58.5519 71.2036C59.4818 71.9707 60.5766 72.5136 61.7513 72.7903C62.926 73.067 64.1488 73.0699 65.3248 72.7989C66.5008 72.5278 67.5982 71.9901 68.5318 71.2276C69.4654 70.465 70.2099 69.4981 70.7076 68.402C70.7577 68.2918 70.7761 68.1699 70.7607 68.0499C70.7453 67.9298 70.6968 67.8164 70.6205 67.7223C70.5442 67.6281 70.4432 67.557 70.3287 67.5167C70.2142 67.4765 70.0908 67.4687 69.9721 67.4943C69.1554 67.6809 68.3202 67.7751 67.4823 67.7751H66.2162C65.8781 67.7793 65.5509 67.6559 65.3003 67.4297C65.0497 67.2035 64.8941 66.8913 64.8648 66.5555C64.8529 66.3769 64.878 66.1977 64.9385 66.0291C64.999 65.8605 65.0936 65.7061 65.2165 65.5755C65.3394 65.4449 65.4879 65.3409 65.6528 65.2699C65.8178 65.1989 65.9956 65.1625 66.1752 65.1629H67.4856C68.8547 65.165 70.2038 64.8355 71.4168 64.2029C72.8534 63.4572 74.0469 62.3187 74.8572 60.9209C75.6676 59.5231 76.0614 57.9239 75.9922 56.311C75.9231 54.698 75.394 53.1382 74.467 51.8143C73.54 50.4905 72.2535 49.4575 70.7583 48.8366ZM68.7927 54.7141H68.1375C66.5736 54.7141 65.0737 54.0949 63.9679 52.9926C62.862 51.8904 62.2407 50.3954 62.2407 48.8366V48.1836C62.2407 47.8372 62.3788 47.505 62.6245 47.26C62.8703 47.0151 63.2036 46.8775 63.5511 46.8775C63.8987 46.8775 64.232 47.0151 64.4777 47.26C64.7235 47.505 64.8615 47.8372 64.8615 48.1836V48.8366C64.8615 49.2654 64.9463 49.69 65.1109 50.0862C65.2755 50.4823 65.5168 50.8423 65.821 51.1455C66.4354 51.7579 67.2687 52.1019 68.1375 52.1019H68.7927C69.1403 52.1019 69.4736 52.2395 69.7193 52.4844C69.9651 52.7294 70.1031 53.0616 70.1031 53.408C70.1031 53.7544 69.9651 54.0866 69.7193 54.3315C69.4736 54.5765 69.1403 54.7141 68.7927 54.7141ZM50.4471 41C48.5363 41.0022 46.7043 41.7597 45.3532 43.1064C44.002 44.4531 43.242 46.279 43.2398 48.1836V48.8366C41.7449 49.4579 40.4586 50.4911 39.5319 51.8151C38.6052 53.1392 38.0765 54.6991 38.0077 56.312C37.9389 57.9249 38.333 59.524 39.1436 60.9216C39.9543 62.3192 41.1479 63.4575 42.5846 64.2029C43.7977 64.8355 45.1468 65.165 46.5158 65.1629H47.782C48.1207 65.1579 48.4486 65.2809 48.6999 65.5072C48.9513 65.7335 49.1073 66.0462 49.1367 66.3825C49.1486 66.5611 49.1235 66.7403 49.063 66.9089C49.0025 67.0775 48.9078 67.2319 48.7849 67.3625C48.6621 67.4931 48.5135 67.5971 48.3486 67.6681C48.1837 67.7391 48.0059 67.7755 47.8263 67.7751H46.5158C45.6773 67.7755 44.8415 67.6807 44.0244 67.4927C43.9059 67.4669 43.7824 67.4744 43.6679 67.5145C43.5534 67.5545 43.4523 67.6255 43.3759 67.7194C43.2994 67.8134 43.2507 67.9267 43.2351 68.0466C43.2194 68.1666 43.2375 68.2885 43.2873 68.3988C43.7849 69.4951 44.5293 70.4623 45.4629 71.2252C46.3965 71.9881 47.494 72.5262 48.6701 72.7975C49.8463 73.0689 51.0693 73.0662 52.2443 72.7898C53.4192 72.5134 54.5144 71.9706 55.4446 71.2036C55.5209 71.1423 55.5825 71.0647 55.6247 70.9766C55.667 70.8884 55.6888 70.792 55.6887 70.6943V65.1629C55.6887 63.7773 55.1364 62.4485 54.1534 61.4687C53.1705 60.4889 51.8372 59.9385 50.4471 59.9385C50.269 59.9387 50.0928 59.9028 49.9292 59.8329C49.7655 59.7631 49.6179 59.6607 49.4953 59.532C49.3726 59.4034 49.2776 59.2512 49.2159 59.0847C49.1543 58.9183 49.1273 58.741 49.1367 58.5638C49.1617 58.2229 49.3171 57.9045 49.5706 57.6743C49.8241 57.4441 50.1566 57.3195 50.4995 57.3263C51.9796 57.334 53.4271 57.761 54.6731 58.5573C54.7718 58.6221 54.8862 58.659 55.0042 58.6643C55.1222 58.6696 55.2394 58.6429 55.3435 58.5872C55.4476 58.5315 55.5346 58.4488 55.5954 58.3478C55.6561 58.2468 55.6884 58.1314 55.6887 58.0136V43.5289C55.6893 43.3575 55.6222 43.1927 55.502 43.0702C54.1565 41.7432 52.3399 40.9992 50.4471 41ZM51.7575 48.8366C51.7575 50.3954 51.1362 51.8904 50.0303 52.9926C48.9245 54.0949 47.4246 54.7141 45.8606 54.7141H45.2054C44.8579 54.7141 44.5246 54.5765 44.2788 54.3315C44.0331 54.0866 43.895 53.7544 43.895 53.408C43.895 53.0616 44.0331 52.7294 44.2788 52.4844C44.5246 52.2395 44.8579 52.1019 45.2054 52.1019H45.8606C46.2909 52.1019 46.7169 52.0174 47.1143 51.8533C47.5118 51.6892 47.8729 51.4487 48.1771 51.1455C48.4813 50.8423 48.7227 50.4823 48.8873 50.0862C49.0519 49.69 49.1367 49.2654 49.1367 48.8366V48.1836C49.1367 47.8372 49.2747 47.505 49.5205 47.26C49.7662 47.0151 50.0995 46.8775 50.4471 46.8775C50.7946 46.8775 51.1279 47.0151 51.3737 47.26C51.6194 47.505 51.7575 47.8372 51.7575 48.1836V48.8366Z" fill="white"/>
</svg>
