<svg width="137" height="110" viewBox="0 0 137 110" fill="none" xmlns="http://www.w3.org/2000/svg">
<circle cx="75" cy="61" r="49" fill="#EA6160"/>
<path d="M89.522 41.8347H84.9282V40.3035C84.9282 39.8974 84.7669 39.5079 84.4797 39.2207C84.1926 38.9335 83.8031 38.7722 83.397 38.7722C82.9909 38.7722 82.6014 38.9335 82.3142 39.2207C82.0271 39.5079 81.8657 39.8974 81.8657 40.3035V41.8347H75.7407V40.3035C75.7407 39.8974 75.5794 39.5079 75.2922 39.2207C75.0051 38.9335 74.6156 38.7722 74.2095 38.7722C73.8034 38.7722 73.4139 38.9335 73.1267 39.2207C72.8396 39.5079 72.6782 39.8974 72.6782 40.3035V41.8347H66.5532V40.3035C66.5532 39.8974 66.3919 39.5079 66.1047 39.2207C65.8176 38.9335 65.4281 38.7722 65.022 38.7722C64.6159 38.7722 64.2264 38.9335 63.9392 39.2207C63.6521 39.5079 63.4907 39.8974 63.4907 40.3035V41.8347H58.897C58.4909 41.8347 58.1014 41.996 57.8142 42.2832C57.5271 42.5704 57.3657 42.9599 57.3657 43.366V73.991C57.3657 75.6154 58.011 77.1733 59.1597 78.322C60.3084 79.4707 61.8663 80.116 63.4907 80.116H84.9282C86.5527 80.116 88.1106 79.4707 89.2593 78.322C90.4079 77.1733 91.0532 75.6154 91.0532 73.991V43.366C91.0532 42.9599 90.8919 42.5704 90.6047 42.2832C90.3176 41.996 89.9281 41.8347 89.522 41.8347ZM72.6782 46.4285C72.6782 46.0224 72.8396 45.6329 73.1267 45.3457C73.4139 45.0585 73.8034 44.8972 74.2095 44.8972C74.6156 44.8972 75.0051 45.0585 75.2922 45.3457C75.5794 45.6329 75.7407 46.0224 75.7407 46.4285V47.9597C75.7407 48.3658 75.5794 48.7553 75.2922 49.0425C75.0051 49.3296 74.6156 49.491 74.2095 49.491C73.8034 49.491 73.4139 49.3296 73.1267 49.0425C72.8396 48.7553 72.6782 48.3658 72.6782 47.9597V46.4285ZM65.022 49.491C64.6159 49.491 64.2264 49.3296 63.9392 49.0425C63.6521 48.7553 63.4907 48.3658 63.4907 47.9597V46.4285C63.4907 46.0224 63.6521 45.6329 63.9392 45.3457C64.2264 45.0585 64.6159 44.8972 65.022 44.8972C65.4281 44.8972 65.8176 45.0585 66.1047 45.3457C66.3919 45.6329 66.5532 46.0224 66.5532 46.4285V47.9597C66.5532 48.3658 66.3919 48.7553 66.1047 49.0425C65.8176 49.3296 65.4281 49.491 65.022 49.491ZM80.3345 67.866H68.0845C67.6784 67.866 67.2889 67.7046 67.0017 67.4175C66.7146 67.1303 66.5532 66.7408 66.5532 66.3347C66.5532 65.9286 66.7146 65.5391 67.0017 65.252C67.2889 64.9648 67.6784 64.8035 68.0845 64.8035H80.3345C80.7406 64.8035 81.1301 64.9648 81.4172 65.252C81.7044 65.5391 81.8657 65.9286 81.8657 66.3347C81.8657 66.7408 81.7044 67.1303 81.4172 67.4175C81.1301 67.7046 80.7406 67.866 80.3345 67.866ZM80.3345 61.741H68.0845C67.6784 61.741 67.2889 61.5796 67.0017 61.2925C66.7146 61.0053 66.5532 60.6158 66.5532 60.2097C66.5532 59.8036 66.7146 59.4141 67.0017 59.127C67.2889 58.8398 67.6784 58.6785 68.0845 58.6785H80.3345C80.7406 58.6785 81.1301 58.8398 81.4172 59.127C81.7044 59.4141 81.8657 59.8036 81.8657 60.2097C81.8657 60.6158 81.7044 61.0053 81.4172 61.2925C81.1301 61.5796 80.7406 61.741 80.3345 61.741ZM84.9282 47.9597C84.9282 48.3658 84.7669 48.7553 84.4797 49.0425C84.1926 49.3296 83.8031 49.491 83.397 49.491C82.9909 49.491 82.6014 49.3296 82.3142 49.0425C82.0271 48.7553 81.8657 48.3658 81.8657 47.9597V46.4285C81.8657 46.0224 82.0271 45.6329 82.3142 45.3457C82.6014 45.0585 82.9909 44.8972 83.397 44.8972C83.8031 44.8972 84.1926 45.0585 84.4797 45.3457C84.7669 45.6329 84.9282 46.0224 84.9282 46.4285V47.9597Z" fill="white"/>
<path d="M25.5 3.98438C21.2446 3.98438 17.0848 5.24624 13.5466 7.61041C10.0083 9.97458 7.25063 13.3349 5.62216 17.2663C3.9937 21.1978 3.56762 25.5239 4.3978 29.6975C5.22799 33.8711 7.27715 37.7048 10.2862 40.7138C13.2952 43.7229 17.1289 45.772 21.3025 46.6022C25.4761 47.4324 29.8022 47.0063 33.7337 45.3778C37.6651 43.7494 41.0254 40.9917 43.3896 37.4534C45.7538 33.9152 47.0156 29.7554 47.0156 25.5C47.0093 19.7956 44.7405 14.3267 40.7069 10.2931C36.6733 6.25955 31.2044 3.9907 25.5 3.98438ZM25.5 42.2344C22.1903 42.2344 18.9548 41.2529 16.2029 39.4141C13.4509 37.5753 11.306 34.9618 10.0395 31.904C8.77288 28.8462 8.44148 25.4814 9.08718 22.2353C9.73288 18.9891 11.3267 16.0074 13.667 13.667C16.0074 11.3267 18.9891 9.73287 22.2353 9.08717C25.4814 8.44147 28.8462 8.77287 31.904 10.0395C34.9618 11.306 37.5753 13.4509 39.4141 16.2029C41.2529 18.9548 42.2344 22.1903 42.2344 25.5C42.2296 29.9368 40.465 34.1905 37.3278 37.3277C34.1905 40.465 29.9368 42.2296 25.5 42.2344Z" fill="#FFA500"/>
<path d="M132.776 78.463L109.776 101.463C109.575 101.664 109.337 101.824 109.075 101.932C108.813 102.041 108.532 102.097 108.248 102.097C107.965 102.097 107.684 102.041 107.421 101.932C107.159 101.824 106.921 101.664 106.721 101.463L96.6585 91.4005C96.458 91.2 96.2988 90.9618 96.1903 90.6998C96.0817 90.4377 96.0259 90.1568 96.0259 89.8732C96.0259 89.5895 96.0817 89.3087 96.1903 89.0466C96.2988 88.7845 96.458 88.5464 96.6585 88.3459C96.8591 88.1453 97.0972 87.9862 97.3593 87.8776C97.6213 87.7691 97.9022 87.7132 98.1859 87.7132C98.4695 87.7132 98.7504 87.7691 99.0125 87.8776C99.2745 87.9862 99.5126 88.1453 99.7132 88.3459L108.25 96.8828L129.725 75.4119C130.13 75.0069 130.679 74.7793 131.252 74.7793C131.825 74.7793 132.374 75.0069 132.779 75.4119C133.184 75.817 133.412 76.3664 133.412 76.9393C133.412 77.5122 133.184 78.0616 132.779 78.4666L132.776 78.463Z" fill="#2A3B5F"/>
</svg>
